<svg width="103" height="48" viewBox="0 0 103 48" fill="none" xmlns="http://www.w3.org/2000/svg">
<g clip-path="url(#clip0)">
<path d="M59.2228 38.3725C60.9586 38.3725 61.8224 37.9049 61.8224 36.8002C61.8224 35.5585 60.8786 35.107 58.9909 35.107H57.5671L57.5671 38.3725H59.2228ZM58.7429 32.8654C60.1667 32.8654 60.8786 32.6074 60.8786 31.3898C60.8786 30.2207 60.1107 29.7611 58.5669 29.7611L57.5591 29.7611L57.5591 32.8654H58.7429ZM54.2716 27.2292L59.0469 27.2292C62.3823 27.2292 64.1181 28.4387 64.1181 31.0189C64.1181 32.1639 63.4382 33.0186 62.7503 33.4701V33.5105C63.6781 33.841 65.1019 34.8489 65.1019 36.7277C65.1019 39.2353 63.6382 40.9608 59.6308 40.9608L54.2796 40.9608L54.2796 27.2292H54.2716Z" fill="black" fill-opacity="0.38"/>
<path d="M72.4607 38.2598V36.5907L70.877 36.631C69.9331 36.6471 69.2452 36.9616 69.2452 37.7357C69.2452 38.3565 69.8372 38.6307 70.4211 38.6307C71.037 38.6307 71.7729 38.4533 72.4607 38.2598ZM66.1257 37.9292C66.1257 35.2522 68.5494 34.7039 70.629 34.7039L72.4607 34.7039V34.0427C72.4607 33.1155 71.8688 32.8413 70.549 32.8413C69.5092 32.8413 68.3894 33.0752 67.4135 33.309L66.7736 30.9626C67.9655 30.4949 69.3572 30.1079 71.037 30.1079C74.2925 30.1079 75.6043 31.0352 75.6043 33.4299L75.6043 38.1469C75.6043 38.5017 75.9482 38.5742 76.5481 38.5904L76.4361 41.0335C76.1802 41.0577 75.9322 41.0577 75.6842 41.0577C74.4124 41.0577 73.0607 40.84 72.7727 39.9288C72.0048 40.5255 70.901 41.1302 69.7492 41.1302C67.4375 41.1302 66.1257 40.0498 66.1257 37.9292Z" fill="black" fill-opacity="0.38"/>
<path d="M78.1239 30.3579L81.3394 30.3579V31.4303C81.9713 30.9465 83.3631 30.0918 84.7709 30.0918C88.0664 30.0918 88.2983 31.9141 88.2983 34.325L88.2983 40.969L85.0988 40.969L85.0988 34.5991C85.0988 33.1477 84.7709 32.8897 83.691 32.8897C82.7312 32.8897 81.8593 33.2042 81.3394 33.4541L81.3394 40.969L78.1239 40.969L78.1239 30.3579Z" fill="black" fill-opacity="0.38"/>
<path d="M90.37 26.3181L93.5855 26.3181L93.5855 34.2845L96.497 30.3578L99.9445 30.3578L96.1131 35.2521L100.576 40.9608L96.609 40.9608L93.5855 36.5906L93.5855 40.9608L90.37 40.9608L90.37 26.3181Z" fill="black" fill-opacity="0.38"/>
<path d="M59.5668 7.02311L54.2716 7.02311L54.2716 20.7627L57.5671 20.7627L57.5671 16.8763H58.5669C62.6303 16.8763 64.83 14.6025 64.83 11.9013C64.83 8.82926 62.6383 7.02311 59.5668 7.02311ZM58.6789 14.3283L57.5591 14.3283L57.5591 9.60332L59.1429 9.60332C60.8946 9.60332 61.4545 10.5951 61.4545 11.9739C61.4625 13.2559 60.7266 14.3283 58.6789 14.3283ZM98.4167 7.02311L93.9454 7.02311L89.3621 20.7627L92.7536 20.7627L94.0414 16.7392L98.3208 16.7392L99.6086 20.7627L103 20.7627L98.4167 7.02311ZM94.8093 14.3445L96.1771 9.06309L97.5449 14.3445L94.8093 14.3445ZM68.9653 7.02311L64.382 20.7627L67.7735 20.7627L69.0613 16.7392L73.3406 16.7392L74.6284 20.7627L78.0199 20.7627L73.4446 7.02311L68.9653 7.02311ZM69.8372 14.3445L71.205 9.06309L72.5728 14.3445L69.8372 14.3445ZM82.3232 10.6112C82.3232 10.0226 82.7472 9.4985 84.123 9.4985C85.5147 9.4985 86.3466 9.77265 87.3545 10.0629L88.3063 7.75686C87.2425 7.2892 86.1946 6.82153 84.027 6.82153C81.6034 6.82153 79.1077 7.97457 79.1077 10.6273C79.1077 15.312 85.6187 14.7073 85.6187 16.9569C85.6187 17.7955 84.8668 18.3035 83.2191 18.3035C81.7073 18.3035 80.8195 18.11 79.5957 17.6745L78.6678 20.0612C79.5957 20.5692 80.7555 20.9482 82.6272 21.0208C82.7152 21.3675 82.8192 21.7303 82.8192 22.069C82.8192 22.7543 81.8353 23.1414 81.3474 23.4397L82.4512 25.391C83.675 24.883 85.5147 24.0203 85.5147 22.4399C85.5147 21.8916 85.2988 21.3433 85.0828 20.8595H85.0668C87.1945 20.4402 88.9622 19.2146 88.9622 16.836C88.9462 12.4496 82.3232 12.4496 82.3232 10.6112Z" fill="black" fill-opacity="0.38"/>
<path d="M32.251 7.03101L40.6417 7.03101L40.6417 20.7626L27.0198 20.7626L27.0198 17.6663L34.5466 10.0789L34.9146 9.70797L32.251 7.03101Z" fill="black" fill-opacity="0.38"/>
<path d="M23.8123 0L33.4428 9.70805L23.8123 19.4161L21.6366 17.231L21.6366 5.98287L17.8772 5.98287L23.8123 0Z" fill="black" fill-opacity="0.38"/>
<path d="M6.97485 7.03101L6.97485 15.4893L9.2625 13.1751L9.63044 12.8042L17.5252 20.7626L20.5967 20.7626L20.5967 7.03101L6.97485 7.03101Z" fill="black" fill-opacity="0.38"/>
<path d="M0 23.9959L9.6305 14.2878L19.269 23.9959L17.0933 26.1891L5.92708 26.1891L5.92708 29.9788L0 23.9959Z" fill="black" fill-opacity="0.38"/>
<path d="M6.97485 40.9689L6.97485 27.2373L20.5967 27.2373L20.5967 30.3336L13.0699 37.921L12.702 38.2919L13.0699 38.6628L15.3656 40.9689L6.97485 40.9689Z" fill="black" fill-opacity="0.38"/>
<path d="M23.8122 48.0001L14.1737 38.292L23.8122 28.5759L25.9799 30.7691L25.9799 42.0172L29.7393 42.0172L23.8122 48.0001Z" fill="black" fill-opacity="0.38"/>
<path d="M40.6417 40.9689L27.0198 40.9689L27.0198 27.2373L30.0913 27.2373L37.6181 34.8247L37.9861 35.1957L38.354 34.8247L40.6417 32.5106L40.6417 40.9689Z" fill="black" fill-opacity="0.38"/>
<path d="M37.9861 33.7122L28.3556 23.996L30.5233 21.8109L41.6815 21.8109L41.6815 18.0212L47.6166 23.996L37.9861 33.7122Z" fill="black" fill-opacity="0.38"/>
</g>
<defs>
<clipPath id="clip0">
<rect width="103" height="48" fill="white"/>
</clipPath>
</defs>
</svg>
